<mxfile host="app.diagrams.net" agent="Mozilla/5.0 (Windows NT 10.0; Win64; x64) AppleWebKit/537.36 (KHTML, like Gecko) Chrome/133.0.0.0 Safari/537.36" version="26.0.16">
  <diagram name="Página-1" id="O6kaz01IgFCKZnMHk3Ie">
    <mxGraphModel dx="1373" dy="731" grid="1" gridSize="10" guides="1" tooltips="1" connect="1" arrows="1" fold="1" page="1" pageScale="1" pageWidth="827" pageHeight="1169" math="0" shadow="0">
      <root>
        <mxCell id="0" />
        <mxCell id="1" parent="0" />
        <mxCell id="REtoYw6509QRqQoymFd6-5" style="edgeStyle=orthogonalEdgeStyle;rounded=0;orthogonalLoop=1;jettySize=auto;html=1;fontStyle=1" parent="1" source="REtoYw6509QRqQoymFd6-3" target="REtoYw6509QRqQoymFd6-4" edge="1">
          <mxGeometry relative="1" as="geometry" />
        </mxCell>
        <mxCell id="REtoYw6509QRqQoymFd6-3" value="&lt;h1 style=&quot;font-size: 20px;&quot;&gt;Inicio&lt;/h1&gt;" style="ellipse;whiteSpace=wrap;html=1;fontSize=20;fontStyle=1;fillColor=#d5e8d4;strokeColor=#82b366;" parent="1" vertex="1">
          <mxGeometry x="24" y="40" width="120" height="80" as="geometry" />
        </mxCell>
        <mxCell id="REtoYw6509QRqQoymFd6-16" style="edgeStyle=orthogonalEdgeStyle;rounded=0;orthogonalLoop=1;jettySize=auto;html=1;fontStyle=1" parent="1" source="REtoYw6509QRqQoymFd6-4" target="REtoYw6509QRqQoymFd6-8" edge="1">
          <mxGeometry relative="1" as="geometry" />
        </mxCell>
        <mxCell id="REtoYw6509QRqQoymFd6-4" value="Listagem de Usuários cadastrados no sistema" style="rounded=0;whiteSpace=wrap;html=1;fontStyle=1;fontSize=14;fillColor=#dae8fc;strokeColor=#6c8ebf;" parent="1" vertex="1">
          <mxGeometry x="180" y="45" width="124" height="70" as="geometry" />
        </mxCell>
        <mxCell id="REtoYw6509QRqQoymFd6-18" value="" style="edgeStyle=orthogonalEdgeStyle;rounded=0;orthogonalLoop=1;jettySize=auto;html=1;fontStyle=1" parent="1" source="REtoYw6509QRqQoymFd6-8" target="REtoYw6509QRqQoymFd6-17" edge="1">
          <mxGeometry relative="1" as="geometry" />
        </mxCell>
        <mxCell id="REtoYw6509QRqQoymFd6-8" value="Lista de Usuários" style="swimlane;fontStyle=1;childLayout=stackLayout;horizontal=1;startSize=30;horizontalStack=0;resizeParent=1;resizeParentMax=0;resizeLast=0;collapsible=1;marginBottom=0;whiteSpace=wrap;html=1;fontSize=12;fillColor=#dae8fc;strokeColor=#6c8ebf;" parent="1" vertex="1">
          <mxGeometry x="340" y="20" width="140" height="120" as="geometry" />
        </mxCell>
        <mxCell id="REtoYw6509QRqQoymFd6-9" value="Nome:" style="text;strokeColor=none;fillColor=none;align=left;verticalAlign=middle;spacingLeft=4;spacingRight=4;overflow=hidden;points=[[0,0.5],[1,0.5]];portConstraint=eastwest;rotatable=0;whiteSpace=wrap;html=1;fontStyle=1;fontSize=12;" parent="REtoYw6509QRqQoymFd6-8" vertex="1">
          <mxGeometry y="30" width="140" height="30" as="geometry" />
        </mxCell>
        <mxCell id="REtoYw6509QRqQoymFd6-10" value="Usuário:" style="text;strokeColor=none;fillColor=none;align=left;verticalAlign=middle;spacingLeft=4;spacingRight=4;overflow=hidden;points=[[0,0.5],[1,0.5]];portConstraint=eastwest;rotatable=0;whiteSpace=wrap;html=1;fontStyle=1;fontSize=12;" parent="REtoYw6509QRqQoymFd6-8" vertex="1">
          <mxGeometry y="60" width="140" height="30" as="geometry" />
        </mxCell>
        <mxCell id="REtoYw6509QRqQoymFd6-11" value="Turma:" style="text;strokeColor=none;fillColor=none;align=left;verticalAlign=middle;spacingLeft=4;spacingRight=4;overflow=hidden;points=[[0,0.5],[1,0.5]];portConstraint=eastwest;rotatable=0;whiteSpace=wrap;html=1;fontStyle=1;fontSize=12;" parent="REtoYw6509QRqQoymFd6-8" vertex="1">
          <mxGeometry y="90" width="140" height="30" as="geometry" />
        </mxCell>
        <mxCell id="REtoYw6509QRqQoymFd6-20" value="" style="edgeStyle=orthogonalEdgeStyle;rounded=0;orthogonalLoop=1;jettySize=auto;html=1;fontStyle=1" parent="1" source="REtoYw6509QRqQoymFd6-17" target="REtoYw6509QRqQoymFd6-19" edge="1">
          <mxGeometry relative="1" as="geometry" />
        </mxCell>
        <mxCell id="REtoYw6509QRqQoymFd6-17" value="Verificação para identificar se é usuário ou admin logado no sistema" style="whiteSpace=wrap;html=1;fontStyle=1;startSize=30;fillColor=#dae8fc;strokeColor=#6c8ebf;" parent="1" vertex="1">
          <mxGeometry x="524" y="50" width="120" height="60" as="geometry" />
        </mxCell>
        <mxCell id="REtoYw6509QRqQoymFd6-22" value="" style="edgeStyle=orthogonalEdgeStyle;rounded=0;orthogonalLoop=1;jettySize=auto;html=1;entryX=0.5;entryY=0;entryDx=0;entryDy=0;fontStyle=1" parent="1" source="REtoYw6509QRqQoymFd6-19" target="REtoYw6509QRqQoymFd6-26" edge="1">
          <mxGeometry relative="1" as="geometry">
            <mxPoint x="739.2666666666667" y="150.01635991820052" as="targetPoint" />
          </mxGeometry>
        </mxCell>
        <mxCell id="REtoYw6509QRqQoymFd6-19" value="Caso seja admin poderá fazer alterações" style="whiteSpace=wrap;html=1;fontStyle=1;startSize=30;fillColor=#dae8fc;strokeColor=#6c8ebf;" parent="1" vertex="1">
          <mxGeometry x="524" y="150" width="120" height="60" as="geometry" />
        </mxCell>
        <mxCell id="94uX9YDPOIOc10lX5Dhs-2" value="" style="edgeStyle=orthogonalEdgeStyle;rounded=0;orthogonalLoop=1;jettySize=auto;html=1;" edge="1" parent="1" source="REtoYw6509QRqQoymFd6-23" target="94uX9YDPOIOc10lX5Dhs-1">
          <mxGeometry relative="1" as="geometry" />
        </mxCell>
        <mxCell id="REtoYw6509QRqQoymFd6-23" value="Edição Feita" style="whiteSpace=wrap;html=1;fontStyle=1;startSize=30;fontSize=12;fillColor=#d5e8d4;strokeColor=#82b366;" parent="1" vertex="1">
          <mxGeometry x="220" y="265" width="120" height="60" as="geometry" />
        </mxCell>
        <mxCell id="REtoYw6509QRqQoymFd6-25" value="Sim" style="rounded=0;whiteSpace=wrap;html=1;fillColor=#d5e8d4;strokeColor=#82b366;fontStyle=1" parent="1" vertex="1">
          <mxGeometry x="509" y="265" width="30" height="20" as="geometry" />
        </mxCell>
        <mxCell id="REtoYw6509QRqQoymFd6-39" value="" style="edgeStyle=orthogonalEdgeStyle;rounded=0;orthogonalLoop=1;jettySize=auto;html=1;fontStyle=1" parent="1" source="REtoYw6509QRqQoymFd6-26" target="REtoYw6509QRqQoymFd6-38" edge="1">
          <mxGeometry relative="1" as="geometry" />
        </mxCell>
        <mxCell id="REtoYw6509QRqQoymFd6-43" style="edgeStyle=orthogonalEdgeStyle;rounded=0;orthogonalLoop=1;jettySize=auto;html=1;entryX=1;entryY=0.5;entryDx=0;entryDy=0;fontStyle=1" parent="1" source="REtoYw6509QRqQoymFd6-26" target="REtoYw6509QRqQoymFd6-42" edge="1">
          <mxGeometry relative="1" as="geometry" />
        </mxCell>
        <mxCell id="REtoYw6509QRqQoymFd6-26" value="Verificação" style="rhombus;whiteSpace=wrap;html=1;fontStyle=1;fillColor=#fff2cc;strokeColor=#d6b656;" parent="1" vertex="1">
          <mxGeometry x="539" y="250" width="90" height="90" as="geometry" />
        </mxCell>
        <mxCell id="REtoYw6509QRqQoymFd6-38" value="Voltar para a pagina de listagem" style="whiteSpace=wrap;html=1;fontStyle=1;fillColor=#f8cecc;strokeColor=#b85450;" parent="1" vertex="1">
          <mxGeometry x="667" y="265" width="120" height="60" as="geometry" />
        </mxCell>
        <mxCell id="REtoYw6509QRqQoymFd6-41" value="Não" style="rounded=0;whiteSpace=wrap;html=1;fillColor=#f8cecc;strokeColor=#b85450;fontStyle=1" parent="1" vertex="1">
          <mxGeometry x="629" y="265" width="30" height="20" as="geometry" />
        </mxCell>
        <mxCell id="REtoYw6509QRqQoymFd6-44" style="edgeStyle=orthogonalEdgeStyle;rounded=0;orthogonalLoop=1;jettySize=auto;html=1;entryX=1;entryY=0.5;entryDx=0;entryDy=0;fontStyle=1" parent="1" source="REtoYw6509QRqQoymFd6-42" target="REtoYw6509QRqQoymFd6-23" edge="1">
          <mxGeometry relative="1" as="geometry" />
        </mxCell>
        <mxCell id="REtoYw6509QRqQoymFd6-42" value="&lt;span&gt;Manda para a tela de edição&amp;nbsp;&lt;/span&gt;" style="whiteSpace=wrap;html=1;fontStyle=1;startSize=30;fillColor=#d5e8d4;strokeColor=#82b366;" parent="1" vertex="1">
          <mxGeometry x="380" y="265" width="120" height="60" as="geometry" />
        </mxCell>
        <mxCell id="94uX9YDPOIOc10lX5Dhs-1" value="Alerta de Informações salvas" style="whiteSpace=wrap;html=1;fillColor=#d5e8d4;strokeColor=#82b366;fontStyle=1;startSize=30;" vertex="1" parent="1">
          <mxGeometry x="60" y="265" width="120" height="60" as="geometry" />
        </mxCell>
      </root>
    </mxGraphModel>
  </diagram>
</mxfile>
